<?xml version="1.0" encoding="UTF-8" standalone="no"?>
<!DOCTYPE svg PUBLIC "-//W3C//DTD SVG 1.1//EN"
 "http://www.w3.org/Graphics/SVG/1.1/DTD/svg11.dtd">
<!-- Generated by graphviz version 4.0.0 (20220529.0937)
 -->
<!-- Title: dependency&#45;cruiser output Pages: 1 -->
<svg width="898pt" height="400pt"
 viewBox="0.00 0.00 898.00 400.00" xmlns="http://www.w3.org/2000/svg" xmlns:xlink="http://www.w3.org/1999/xlink">
<g id="graph0" class="graph" transform="scale(1 1) rotate(0) translate(4 396)">
<title>dependency&#45;cruiser output</title>
<polygon fill="white" stroke="transparent" points="-4,4 -4,-396 894,-396 894,4 -4,4"/>
<g id="clust1" class="cluster">
<title>cluster_src</title>
<path fill="#ffffff" stroke="black" stroke-width="2" d="M20,-8C20,-8 870,-8 870,-8 876,-8 882,-14 882,-20 882,-20 882,-372 882,-372 882,-378 876,-384 870,-384 870,-384 20,-384 20,-384 14,-384 8,-378 8,-372 8,-372 8,-20 8,-20 8,-14 14,-8 20,-8"/>
<text text-anchor="middle" x="445" y="-372.8" font-family="Helvetica,sans-Serif" font-weight="bold" font-size="9.00">src</text>
</g>
<g id="clust2" class="cluster">
<title>cluster_src/modules</title>
<path fill="#ffffff" stroke="black" stroke-width="2" d="M208,-16C208,-16 862,-16 862,-16 868,-16 874,-22 874,-28 874,-28 874,-290 874,-290 874,-296 868,-302 862,-302 862,-302 208,-302 208,-302 202,-302 196,-296 196,-290 196,-290 196,-28 196,-28 196,-22 202,-16 208,-16"/>
<text text-anchor="middle" x="535" y="-290.8" font-family="Helvetica,sans-Serif" font-weight="bold" font-size="9.00">modules</text>
</g>
<g id="clust3" class="cluster">
<title>cluster_src/modules/base</title>
<path fill="#ffffff" stroke="black" stroke-width="2" d="M774,-49C774,-49 854,-49 854,-49 860,-49 866,-55 866,-61 866,-61 866,-239 866,-239 866,-245 860,-251 854,-251 854,-251 774,-251 774,-251 768,-251 762,-245 762,-239 762,-239 762,-61 762,-61 762,-55 768,-49 774,-49"/>
<text text-anchor="middle" x="814" y="-239.8" font-family="Helvetica,sans-Serif" font-weight="bold" font-size="9.00">base</text>
</g>
<g id="clust4" class="cluster">
<title>cluster_src/modules/doctor</title>
<path fill="#ffffff" stroke="black" stroke-width="2" d="M216,-164C216,-164 600.5,-164 600.5,-164 606.5,-164 612.5,-170 612.5,-176 612.5,-176 612.5,-264 612.5,-264 612.5,-270 606.5,-276 600.5,-276 600.5,-276 216,-276 216,-276 210,-276 204,-270 204,-264 204,-264 204,-176 204,-176 204,-170 210,-164 216,-164"/>
<text text-anchor="middle" x="408.25" y="-264.8" font-family="Helvetica,sans-Serif" font-weight="bold" font-size="9.00">doctor</text>
</g>
<g id="clust5" class="cluster">
<title>cluster_src/modules/doctor/entities</title>
<path fill="#ffffff" stroke="black" stroke-width="2" d="M525.5,-172C525.5,-172 592.5,-172 592.5,-172 598.5,-172 604.5,-178 604.5,-184 604.5,-184 604.5,-212 604.5,-212 604.5,-218 598.5,-224 592.5,-224 592.5,-224 525.5,-224 525.5,-224 519.5,-224 513.5,-218 513.5,-212 513.5,-212 513.5,-184 513.5,-184 513.5,-178 519.5,-172 525.5,-172"/>
<text text-anchor="middle" x="559" y="-212.8" font-family="Helvetica,sans-Serif" font-weight="bold" font-size="9.00">entities</text>
</g>
<g id="clust6" class="cluster">
<title>cluster_src/modules/especialidad</title>
<path fill="#ffffff" stroke="black" stroke-width="2" d="M347,-40C347,-40 742,-40 742,-40 748,-40 754,-46 754,-52 754,-52 754,-144 754,-144 754,-150 748,-156 742,-156 742,-156 347,-156 347,-156 341,-156 335,-150 335,-144 335,-144 335,-52 335,-52 335,-46 341,-40 347,-40"/>
<text text-anchor="middle" x="544.5" y="-144.8" font-family="Helvetica,sans-Serif" font-weight="bold" font-size="9.00">especialidad</text>
</g>
<g id="clust7" class="cluster">
<title>cluster_src/modules/especialidad/entities</title>
<path fill="#ffffff" stroke="black" stroke-width="2" d="M639,-48C639,-48 734,-48 734,-48 740,-48 746,-54 746,-60 746,-60 746,-118 746,-118 746,-124 740,-130 734,-130 734,-130 639,-130 639,-130 633,-130 627,-124 627,-118 627,-118 627,-60 627,-60 627,-54 633,-48 639,-48"/>
<text text-anchor="middle" x="686.5" y="-118.8" font-family="Helvetica,sans-Serif" font-weight="bold" font-size="9.00">entities</text>
</g>
<!-- src/app.controller.spec.ts -->
<g id="node1" class="node">
<title>src/app.controller.spec.ts</title>
<g id="a_node1"><a xlink:href="src/app.controller.spec.ts" xlink:title="app.controller.spec.ts">
<path fill="#ddfeff" stroke="black" d="M182,-343C182,-343 89,-343 89,-343 86,-343 83,-340 83,-337 83,-337 83,-331 83,-331 83,-328 86,-325 89,-325 89,-325 182,-325 182,-325 185,-325 188,-328 188,-331 188,-331 188,-337 188,-337 188,-340 185,-343 182,-343"/>
<text text-anchor="start" x="91" y="-331.8" font-family="Helvetica,sans-Serif" font-size="9.00">app.controller.spec.ts</text>
</a>
</g>
</g>
<!-- src/app.controller.ts -->
<g id="node2" class="node">
<title>src/app.controller.ts</title>
<g id="a_node2"><a xlink:href="src/app.controller.ts" xlink:title="app.controller.ts">
<path fill="#ddfeff" stroke="black" d="M305,-328C305,-328 234,-328 234,-328 231,-328 228,-325 228,-322 228,-322 228,-316 228,-316 228,-313 231,-310 234,-310 234,-310 305,-310 305,-310 308,-310 311,-313 311,-316 311,-316 311,-322 311,-322 311,-325 308,-328 305,-328"/>
<text text-anchor="start" x="236" y="-316.8" font-family="Helvetica,sans-Serif" font-size="9.00">app.controller.ts</text>
</a>
</g>
</g>
<!-- src/app.controller.spec.ts&#45;&gt;src/app.controller.ts -->
<g id="edge1" class="edge">
<title>src/app.controller.spec.ts&#45;&gt;src/app.controller.ts</title>
<path fill="none" stroke="#000000" stroke-width="2" stroke-opacity="0.200000" d="M188.29,-328.11C199.28,-326.87 210.82,-325.55 221.61,-324.33"/>
<polygon fill="#000000" fill-opacity="0.200000" stroke="#000000" stroke-width="2" stroke-opacity="0.200000" points="222.15,-326.38 227.87,-323.62 221.67,-322.21 222.15,-326.38"/>
</g>
<!-- src/app.service.ts -->
<g id="node3" class="node">
<title>src/app.service.ts</title>
<g id="a_node3"><a xlink:href="src/app.service.ts" xlink:title="app.service.ts">
<path fill="#ddfeff" stroke="black" d="M300.5,-358C300.5,-358 238.5,-358 238.5,-358 235.5,-358 232.5,-355 232.5,-352 232.5,-352 232.5,-346 232.5,-346 232.5,-343 235.5,-340 238.5,-340 238.5,-340 300.5,-340 300.5,-340 303.5,-340 306.5,-343 306.5,-346 306.5,-346 306.5,-352 306.5,-352 306.5,-355 303.5,-358 300.5,-358"/>
<text text-anchor="start" x="240.5" y="-346.8" font-family="Helvetica,sans-Serif" font-size="9.00">app.service.ts</text>
</a>
</g>
</g>
<!-- src/app.controller.spec.ts&#45;&gt;src/app.service.ts -->
<g id="edge2" class="edge">
<title>src/app.controller.spec.ts&#45;&gt;src/app.service.ts</title>
<path fill="none" stroke="#000000" stroke-width="2" stroke-opacity="0.200000" d="M188.29,-339.89C200.84,-341.31 214.1,-342.82 226.16,-344.19"/>
<polygon fill="#000000" fill-opacity="0.200000" stroke="#000000" stroke-width="2" stroke-opacity="0.200000" points="226.14,-346.3 232.34,-344.89 226.62,-342.13 226.14,-346.3"/>
</g>
<!-- src/app.module.ts -->
<g id="node4" class="node">
<title>src/app.module.ts</title>
<g id="a_node4"><a xlink:href="src/app.module.ts" xlink:title="app.module.ts">
<path fill="#ddfeff" stroke="black" d="M167.5,-242C167.5,-242 103.5,-242 103.5,-242 100.5,-242 97.5,-239 97.5,-236 97.5,-236 97.5,-230 97.5,-230 97.5,-227 100.5,-224 103.5,-224 103.5,-224 167.5,-224 167.5,-224 170.5,-224 173.5,-227 173.5,-230 173.5,-230 173.5,-236 173.5,-236 173.5,-239 170.5,-242 167.5,-242"/>
<text text-anchor="start" x="105.5" y="-230.8" font-family="Helvetica,sans-Serif" font-size="9.00">app.module.ts</text>
</a>
</g>
</g>
<!-- src/app.module.ts&#45;&gt;src/app.controller.ts -->
<g id="edge3" class="edge">
<title>src/app.module.ts&#45;&gt;src/app.controller.ts</title>
<path fill="none" stroke="#000000" stroke-width="2" stroke-opacity="0.200000" d="M144.16,-242.02C154.77,-254.06 175.03,-275.45 196,-289 207.81,-296.63 221.88,-302.98 234.46,-307.85"/>
<polygon fill="#000000" fill-opacity="0.200000" stroke="#000000" stroke-width="2" stroke-opacity="0.200000" points="233.78,-309.83 240.13,-309.98 235.25,-305.9 233.78,-309.83"/>
</g>
<!-- src/app.module.ts&#45;&gt;src/app.service.ts -->
<g id="edge4" class="edge">
<title>src/app.module.ts&#45;&gt;src/app.service.ts</title>
<path fill="none" stroke="#000000" stroke-width="2" stroke-opacity="0.200000" d="M142.22,-242.2C151.88,-257.84 171.98,-290.67 188,-319 191.72,-325.58 189.95,-329.47 196,-334 204.77,-340.56 215.73,-344.42 226.46,-346.64"/>
<polygon fill="#000000" fill-opacity="0.200000" stroke="#000000" stroke-width="2" stroke-opacity="0.200000" points="226.1,-348.71 232.38,-347.72 226.85,-344.58 226.1,-348.71"/>
</g>
<!-- src/modules/doctor/doctor.module.ts -->
<g id="node5" class="node">
<title>src/modules/doctor/doctor.module.ts</title>
<g id="a_node5"><a xlink:href="src/modules/doctor/doctor.module.ts" xlink:title="doctor.module.ts">
<path fill="#ddfeff" stroke="black" d="M306.5,-190C306.5,-190 232.5,-190 232.5,-190 229.5,-190 226.5,-187 226.5,-184 226.5,-184 226.5,-178 226.5,-178 226.5,-175 229.5,-172 232.5,-172 232.5,-172 306.5,-172 306.5,-172 309.5,-172 312.5,-175 312.5,-178 312.5,-178 312.5,-184 312.5,-184 312.5,-187 309.5,-190 306.5,-190"/>
<text text-anchor="start" x="234.5" y="-178.8" font-family="Helvetica,sans-Serif" font-size="9.00">doctor.module.ts</text>
</a>
</g>
</g>
<!-- src/app.module.ts&#45;&gt;src/modules/doctor/doctor.module.ts -->
<g id="edge5" class="edge">
<title>src/app.module.ts&#45;&gt;src/modules/doctor/doctor.module.ts</title>
<path fill="none" stroke="#000000" stroke-width="2" stroke-opacity="0.200000" d="M148.58,-223.7C160.14,-215.24 178.38,-203.04 196,-196 203.61,-192.96 211.92,-190.5 220.12,-188.53"/>
<polygon fill="#000000" fill-opacity="0.200000" stroke="#000000" stroke-width="2" stroke-opacity="0.200000" points="220.97,-190.49 226.35,-187.11 220.04,-186.39 220.97,-190.49"/>
</g>
<!-- src/modules/doctor/entities/doctor.entity.ts -->
<g id="node6" class="node">
<title>src/modules/doctor/entities/doctor.entity.ts</title>
<g id="a_node6"><a xlink:href="src/modules/doctor/entities/doctor.entity.ts" xlink:title="doctor.entity.ts">
<path fill="#ddfeff" stroke="black" d="M590.5,-198C590.5,-198 527.5,-198 527.5,-198 524.5,-198 521.5,-195 521.5,-192 521.5,-192 521.5,-186 521.5,-186 521.5,-183 524.5,-180 527.5,-180 527.5,-180 590.5,-180 590.5,-180 593.5,-180 596.5,-183 596.5,-186 596.5,-186 596.5,-192 596.5,-192 596.5,-195 593.5,-198 590.5,-198"/>
<text text-anchor="start" x="529.5" y="-186.8" font-family="Helvetica,sans-Serif" font-size="9.00">doctor.entity.ts</text>
</a>
</g>
</g>
<!-- src/app.module.ts&#45;&gt;src/modules/doctor/entities/doctor.entity.ts -->
<g id="edge6" class="edge">
<title>src/app.module.ts&#45;&gt;src/modules/doctor/entities/doctor.entity.ts</title>
<path fill="none" stroke="#000000" stroke-width="2" stroke-opacity="0.200000" d="M139.25,-223.89C145.94,-202.96 164.86,-150.74 196,-118 245.28,-66.19 265.97,-55.65 335,-37 399.79,-19.5 436.09,7.87 486,-37 506.27,-55.23 483.53,-136.55 499,-159 504.4,-166.84 512.49,-172.75 520.96,-177.16"/>
<polygon fill="#000000" fill-opacity="0.200000" stroke="#000000" stroke-width="2" stroke-opacity="0.200000" points="520.54,-179.28 526.85,-179.97 522.35,-175.49 520.54,-179.28"/>
</g>
<!-- src/modules/especialidad/entities/especialidad.entity.ts -->
<g id="node7" class="node">
<title>src/modules/especialidad/entities/especialidad.entity.ts</title>
<g id="a_node7"><a xlink:href="src/modules/especialidad/entities/especialidad.entity.ts" xlink:title="especialidad.entity.ts">
<path fill="#ddfeff" stroke="black" d="M732,-74C732,-74 641,-74 641,-74 638,-74 635,-71 635,-68 635,-68 635,-62 635,-62 635,-59 638,-56 641,-56 641,-56 732,-56 732,-56 735,-56 738,-59 738,-62 738,-62 738,-68 738,-68 738,-71 735,-74 732,-74"/>
<text text-anchor="start" x="643" y="-62.8" font-family="Helvetica,sans-Serif" font-size="9.00">especialidad.entity.ts</text>
</a>
</g>
</g>
<!-- src/app.module.ts&#45;&gt;src/modules/especialidad/entities/especialidad.entity.ts -->
<g id="edge7" class="edge">
<title>src/app.module.ts&#45;&gt;src/modules/especialidad/entities/especialidad.entity.ts</title>
<path fill="none" stroke="#000000" stroke-width="2" stroke-opacity="0.200000" d="M144.65,-242.26C155.19,-253.47 174.75,-271.74 196,-279 256.99,-299.83 422.67,-290.94 486,-279 548.37,-267.24 581.8,-278.42 619,-227 638.17,-200.49 606.25,-105.29 627,-80 627.85,-78.97 628.76,-78 629.72,-77.09"/>
<polygon fill="#000000" fill-opacity="0.200000" stroke="#000000" stroke-width="2" stroke-opacity="0.200000" points="631.47,-78.39 634.92,-73.06 628.89,-75.07 631.47,-78.39"/>
</g>
<!-- src/modules/especialidad/especialidad.module.ts -->
<g id="node8" class="node">
<title>src/modules/especialidad/especialidad.module.ts</title>
<g id="a_node8"><a xlink:href="src/modules/especialidad/especialidad.module.ts" xlink:title="especialidad.module.ts">
<path fill="#ddfeff" stroke="black" d="M465,-126C465,-126 364,-126 364,-126 361,-126 358,-123 358,-120 358,-120 358,-114 358,-114 358,-111 361,-108 364,-108 364,-108 465,-108 465,-108 468,-108 471,-111 471,-114 471,-114 471,-120 471,-120 471,-123 468,-126 465,-126"/>
<text text-anchor="start" x="366" y="-114.8" font-family="Helvetica,sans-Serif" font-size="9.00">especialidad.module.ts</text>
</a>
</g>
</g>
<!-- src/app.module.ts&#45;&gt;src/modules/especialidad/especialidad.module.ts -->
<g id="edge8" class="edge">
<title>src/app.module.ts&#45;&gt;src/modules/especialidad/especialidad.module.ts</title>
<path fill="none" stroke="#000000" stroke-width="2" stroke-opacity="0.200000" d="M141.33,-223.78C150.02,-208.16 169.85,-176.67 196,-161 243.28,-132.67 305.65,-122.26 351.47,-118.59"/>
<polygon fill="#000000" fill-opacity="0.200000" stroke="#000000" stroke-width="2" stroke-opacity="0.200000" points="351.72,-120.68 357.54,-118.14 351.4,-116.49 351.72,-120.68"/>
</g>
<!-- src/modules/doctor/doctor.module.ts&#45;&gt;src/modules/doctor/entities/doctor.entity.ts -->
<g id="edge14" class="edge">
<title>src/modules/doctor/doctor.module.ts&#45;&gt;src/modules/doctor/entities/doctor.entity.ts</title>
<path fill="none" stroke="#000000" stroke-width="2" stroke-opacity="0.200000" d="M312.61,-182.17C366.83,-183.68 460.53,-186.29 515.12,-187.81"/>
<polygon fill="#000000" fill-opacity="0.200000" stroke="#000000" stroke-width="2" stroke-opacity="0.200000" points="515.19,-189.91 521.25,-187.98 515.31,-185.71 515.19,-189.91"/>
</g>
<!-- src/modules/doctor/doctor.controller.ts -->
<g id="node17" class="node">
<title>src/modules/doctor/doctor.controller.ts</title>
<g id="a_node17"><a xlink:href="src/modules/doctor/doctor.controller.ts" xlink:title="doctor.controller.ts">
<path fill="#ddfeff" stroke="black" d="M454.5,-250C454.5,-250 374.5,-250 374.5,-250 371.5,-250 368.5,-247 368.5,-244 368.5,-244 368.5,-238 368.5,-238 368.5,-235 371.5,-232 374.5,-232 374.5,-232 454.5,-232 454.5,-232 457.5,-232 460.5,-235 460.5,-238 460.5,-238 460.5,-244 460.5,-244 460.5,-247 457.5,-250 454.5,-250"/>
<text text-anchor="start" x="376.5" y="-238.8" font-family="Helvetica,sans-Serif" font-size="9.00">doctor.controller.ts</text>
</a>
</g>
</g>
<!-- src/modules/doctor/doctor.module.ts&#45;&gt;src/modules/doctor/doctor.controller.ts -->
<g id="edge12" class="edge">
<title>src/modules/doctor/doctor.module.ts&#45;&gt;src/modules/doctor/doctor.controller.ts</title>
<path fill="none" stroke="#000000" stroke-width="2" stroke-opacity="0.200000" d="M312.57,-186.95C317.9,-189.13 322.9,-192.06 327,-196 335.71,-204.38 326.19,-213.72 335,-222 342.6,-229.15 352.41,-233.75 362.51,-236.67"/>
<polygon fill="#000000" fill-opacity="0.200000" stroke="#000000" stroke-width="2" stroke-opacity="0.200000" points="362.14,-238.75 368.47,-238.21 363.18,-234.68 362.14,-238.75"/>
</g>
<!-- src/modules/doctor/doctor.service.ts -->
<g id="node18" class="node">
<title>src/modules/doctor/doctor.service.ts</title>
<g id="a_node18"><a xlink:href="src/modules/doctor/doctor.service.ts" xlink:title="doctor.service.ts">
<path fill="#ddfeff" stroke="black" d="M450,-216C450,-216 379,-216 379,-216 376,-216 373,-213 373,-210 373,-210 373,-204 373,-204 373,-201 376,-198 379,-198 379,-198 450,-198 450,-198 453,-198 456,-201 456,-204 456,-204 456,-210 456,-210 456,-213 453,-216 450,-216"/>
<text text-anchor="start" x="381" y="-204.8" font-family="Helvetica,sans-Serif" font-size="9.00">doctor.service.ts</text>
</a>
</g>
</g>
<!-- src/modules/doctor/doctor.module.ts&#45;&gt;src/modules/doctor/doctor.service.ts -->
<g id="edge13" class="edge">
<title>src/modules/doctor/doctor.module.ts&#45;&gt;src/modules/doctor/doctor.service.ts</title>
<path fill="none" stroke="#000000" stroke-width="2" stroke-opacity="0.200000" d="M312.63,-188.66C329.51,-191.73 349.03,-195.28 366.37,-198.43"/>
<polygon fill="#000000" fill-opacity="0.200000" stroke="#000000" stroke-width="2" stroke-opacity="0.200000" points="366.37,-200.57 372.65,-199.57 367.13,-196.43 366.37,-200.57"/>
</g>
<!-- src/modules/base/base.entity -->
<g id="node13" class="node">
<title>src/modules/base/base.entity</title>
<g id="a_node13"><a xlink:title="base.entity">
<path fill="#ffffcc" stroke="red" d="M838.5,-135C838.5,-135 789.5,-135 789.5,-135 786.5,-135 783.5,-132 783.5,-129 783.5,-129 783.5,-123 783.5,-123 783.5,-120 786.5,-117 789.5,-117 789.5,-117 838.5,-117 838.5,-117 841.5,-117 844.5,-120 844.5,-123 844.5,-123 844.5,-129 844.5,-129 844.5,-132 841.5,-135 838.5,-135"/>
<text text-anchor="start" x="791.5" y="-123.8" font-family="Helvetica,sans-Serif" font-size="9.00" fill="red">base.entity</text>
</a>
</g>
</g>
<!-- src/modules/doctor/entities/doctor.entity.ts&#45;&gt;src/modules/base/base.entity -->
<g id="edge18" class="edge">
<title>src/modules/doctor/entities/doctor.entity.ts&#45;&gt;src/modules/base/base.entity</title>
<path fill="none" stroke="#000000" stroke-width="2" stroke-opacity="0.200000" d="M596.25,-179.97C644.47,-167.97 729.19,-146.87 777.19,-134.92"/>
<polygon fill="#000000" fill-opacity="0.200000" stroke="#000000" stroke-width="2" stroke-opacity="0.200000" points="777.83,-136.92 783.14,-133.44 776.81,-132.85 777.83,-136.92"/>
</g>
<!-- src/modules/especialidad/entities/especialidad.entity -->
<g id="node20" class="node">
<title>src/modules/especialidad/entities/especialidad.entity</title>
<g id="a_node20"><a xlink:title="especialidad.entity">
<path fill="#ffffcc" stroke="red" d="M727,-104C727,-104 646,-104 646,-104 643,-104 640,-101 640,-98 640,-98 640,-92 640,-92 640,-89 643,-86 646,-86 646,-86 727,-86 727,-86 730,-86 733,-89 733,-92 733,-92 733,-98 733,-98 733,-101 730,-104 727,-104"/>
<text text-anchor="start" x="648" y="-92.8" font-family="Helvetica,sans-Serif" font-size="9.00" fill="red">especialidad.entity</text>
</a>
</g>
</g>
<!-- src/modules/doctor/entities/doctor.entity.ts&#45;&gt;src/modules/especialidad/entities/especialidad.entity -->
<g id="edge19" class="edge">
<title>src/modules/doctor/entities/doctor.entity.ts&#45;&gt;src/modules/especialidad/entities/especialidad.entity</title>
<path fill="none" stroke="#000000" stroke-width="2" stroke-opacity="0.200000" d="M581.62,-179.89C593.18,-174.56 607.39,-167.26 619,-159 639.93,-144.11 660.73,-122.77 673.35,-108.9"/>
<polygon fill="#000000" fill-opacity="0.200000" stroke="#000000" stroke-width="2" stroke-opacity="0.200000" points="675.16,-110.02 677.61,-104.15 672.04,-107.21 675.16,-110.02"/>
</g>
<!-- src/modules/especialidad/entities/especialidad.entity.ts&#45;&gt;src/modules/base/base.entity -->
<g id="edge20" class="edge">
<title>src/modules/especialidad/entities/especialidad.entity.ts&#45;&gt;src/modules/base/base.entity</title>
<path fill="none" stroke="#000000" stroke-width="2" stroke-opacity="0.200000" d="M738.13,-70.1C744.01,-72.43 749.5,-75.63 754,-80 764.21,-89.91 752.11,-100.77 762,-111 766.28,-115.43 771.8,-118.57 777.62,-120.79"/>
<polygon fill="#000000" fill-opacity="0.200000" stroke="#000000" stroke-width="2" stroke-opacity="0.200000" points="777.14,-122.84 783.5,-122.72 778.45,-118.85 777.14,-122.84"/>
</g>
<!-- src/modules/especialidad/especialidad.module.ts&#45;&gt;src/modules/especialidad/entities/especialidad.entity.ts -->
<g id="edge25" class="edge">
<title>src/modules/especialidad/especialidad.module.ts&#45;&gt;src/modules/especialidad/entities/especialidad.entity.ts</title>
<path fill="none" stroke="#000000" stroke-width="2" stroke-opacity="0.200000" d="M456.69,-126.03C501.32,-133.31 572.39,-137.27 619,-102 627.3,-95.72 619.29,-86.99 627,-80 628.04,-79.06 629.13,-78.17 630.27,-77.34"/>
<polygon fill="#000000" fill-opacity="0.200000" stroke="#000000" stroke-width="2" stroke-opacity="0.200000" points="631.55,-79.01 635.5,-74.03 629.31,-75.46 631.55,-79.01"/>
</g>
<!-- src/modules/especialidad/especialidad.controller.ts -->
<g id="node22" class="node">
<title>src/modules/especialidad/especialidad.controller.ts</title>
<g id="a_node22"><a xlink:href="src/modules/especialidad/especialidad.controller.ts" xlink:title="especialidad.controller.ts">
<path fill="#ddfeff" stroke="black" d="M613,-96C613,-96 505,-96 505,-96 502,-96 499,-93 499,-90 499,-90 499,-84 499,-84 499,-81 502,-78 505,-78 505,-78 613,-78 613,-78 616,-78 619,-81 619,-84 619,-84 619,-90 619,-90 619,-93 616,-96 613,-96"/>
<text text-anchor="start" x="507" y="-84.8" font-family="Helvetica,sans-Serif" font-size="9.00">especialidad.controller.ts</text>
</a>
</g>
</g>
<!-- src/modules/especialidad/especialidad.module.ts&#45;&gt;src/modules/especialidad/especialidad.controller.ts -->
<g id="edge23" class="edge">
<title>src/modules/especialidad/especialidad.module.ts&#45;&gt;src/modules/especialidad/especialidad.controller.ts</title>
<path fill="none" stroke="#000000" stroke-width="2" stroke-opacity="0.200000" d="M458.25,-108C474.17,-104.65 492.36,-100.82 508.81,-97.36"/>
<polygon fill="#000000" fill-opacity="0.200000" stroke="#000000" stroke-width="2" stroke-opacity="0.200000" points="509.34,-99.39 514.78,-96.1 508.48,-95.28 509.34,-99.39"/>
</g>
<!-- src/modules/especialidad/especialidad.service.ts -->
<g id="node23" class="node">
<title>src/modules/especialidad/especialidad.service.ts</title>
<g id="a_node23"><a xlink:href="src/modules/especialidad/especialidad.service.ts" xlink:title="especialidad.service.ts">
<path fill="#ddfeff" stroke="black" d="M608.5,-66C608.5,-66 509.5,-66 509.5,-66 506.5,-66 503.5,-63 503.5,-60 503.5,-60 503.5,-54 503.5,-54 503.5,-51 506.5,-48 509.5,-48 509.5,-48 608.5,-48 608.5,-48 611.5,-48 614.5,-51 614.5,-54 614.5,-54 614.5,-60 614.5,-60 614.5,-63 611.5,-66 608.5,-66"/>
<text text-anchor="start" x="511.5" y="-54.8" font-family="Helvetica,sans-Serif" font-size="9.00">especialidad.service.ts</text>
</a>
</g>
</g>
<!-- src/modules/especialidad/especialidad.module.ts&#45;&gt;src/modules/especialidad/especialidad.service.ts -->
<g id="edge24" class="edge">
<title>src/modules/especialidad/especialidad.module.ts&#45;&gt;src/modules/especialidad/especialidad.service.ts</title>
<path fill="none" stroke="#000000" stroke-width="2" stroke-opacity="0.200000" d="M471.35,-110.5C476.64,-108.34 481.64,-105.57 486,-102 497.25,-92.8 487.94,-81.42 499,-72 500.2,-70.98 501.45,-70.03 502.76,-69.14"/>
<polygon fill="#000000" fill-opacity="0.200000" stroke="#000000" stroke-width="2" stroke-opacity="0.200000" points="503.93,-70.89 508.02,-66.02 501.79,-67.28 503.93,-70.89"/>
</g>
<!-- src/main.ts -->
<g id="node9" class="node">
<title>src/main.ts</title>
<g id="a_node9"><a xlink:href="src/main.ts" xlink:title="main.ts">
<path fill="#ddfeff" stroke="black" d="M64,-242C64,-242 22,-242 22,-242 19,-242 16,-239 16,-236 16,-236 16,-230 16,-230 16,-227 19,-224 22,-224 22,-224 64,-224 64,-224 67,-224 70,-227 70,-230 70,-230 70,-236 70,-236 70,-239 67,-242 64,-242"/>
<text text-anchor="start" x="27.5" y="-230.8" font-family="Helvetica,sans-Serif" font-size="9.00">main.ts</text>
</a>
</g>
</g>
<!-- src/main.ts&#45;&gt;src/app.module.ts -->
<g id="edge9" class="edge">
<title>src/main.ts&#45;&gt;src/app.module.ts</title>
<path fill="none" stroke="#000000" stroke-width="2" stroke-opacity="0.200000" d="M70.18,-233C76.78,-233 84.05,-233 91.26,-233"/>
<polygon fill="#000000" fill-opacity="0.200000" stroke="#000000" stroke-width="2" stroke-opacity="0.200000" points="91.28,-235.1 97.28,-233 91.28,-230.9 91.28,-235.1"/>
</g>
<!-- src/modules/base/IBaseService.ts -->
<g id="node10" class="node">
<title>src/modules/base/IBaseService.ts</title>
<g id="a_node10"><a xlink:href="src/modules/base/IBaseService.ts" xlink:title="IBaseService.ts">
<path fill="#ccffcc" stroke="black" d="M848,-225C848,-225 780,-225 780,-225 777,-225 774,-222 774,-219 774,-219 774,-213 774,-213 774,-210 777,-207 780,-207 780,-207 848,-207 848,-207 851,-207 854,-210 854,-213 854,-213 854,-219 854,-219 854,-222 851,-225 848,-225"/>
<text text-anchor="start" x="782" y="-213.8" font-family="Helvetica,sans-Serif" font-size="9.00">IBaseService.ts</text>
</a>
</g>
</g>
<!-- src/modules/base/base.controller -->
<g id="node11" class="node">
<title>src/modules/base/base.controller</title>
<g id="a_node11"><a xlink:title="base.controller">
<path fill="#ffffcc" stroke="red" d="M847,-195C847,-195 781,-195 781,-195 778,-195 775,-192 775,-189 775,-189 775,-183 775,-183 775,-180 778,-177 781,-177 781,-177 847,-177 847,-177 850,-177 853,-180 853,-183 853,-183 853,-189 853,-189 853,-192 850,-195 847,-195"/>
<text text-anchor="start" x="783" y="-183.8" font-family="Helvetica,sans-Serif" font-size="9.00" fill="red">base.controller</text>
</a>
</g>
</g>
<!-- src/modules/base/base.controller.ts -->
<g id="node12" class="node">
<title>src/modules/base/base.controller.ts</title>
<g id="a_node12"><a xlink:href="src/modules/base/base.controller.ts" xlink:title="base.controller.ts">
<path fill="#ccffcc" stroke="black" d="M852,-165C852,-165 776,-165 776,-165 773,-165 770,-162 770,-159 770,-159 770,-153 770,-153 770,-150 773,-147 776,-147 776,-147 852,-147 852,-147 855,-147 858,-150 858,-153 858,-153 858,-159 858,-159 858,-162 855,-165 852,-165"/>
<text text-anchor="start" x="778" y="-153.8" font-family="Helvetica,sans-Serif" font-size="9.00">base.controller.ts</text>
</a>
</g>
</g>
<!-- src/modules/base/base.entity.ts -->
<g id="node14" class="node">
<title>src/modules/base/base.entity.ts</title>
<g id="a_node14"><a xlink:href="src/modules/base/base.entity.ts" xlink:title="base.entity.ts">
<path fill="#ccffcc" stroke="black" d="M843.5,-105C843.5,-105 784.5,-105 784.5,-105 781.5,-105 778.5,-102 778.5,-99 778.5,-99 778.5,-93 778.5,-93 778.5,-90 781.5,-87 784.5,-87 784.5,-87 843.5,-87 843.5,-87 846.5,-87 849.5,-90 849.5,-93 849.5,-93 849.5,-99 849.5,-99 849.5,-102 846.5,-105 843.5,-105"/>
<text text-anchor="start" x="786.5" y="-93.8" font-family="Helvetica,sans-Serif" font-size="9.00">base.entity.ts</text>
</a>
</g>
</g>
<!-- src/modules/base/base.service.ts -->
<g id="node15" class="node">
<title>src/modules/base/base.service.ts</title>
<g id="a_node15"><a xlink:href="src/modules/base/base.service.ts" xlink:title="base.service.ts">
<path fill="#ddfeff" stroke="black" d="M847.5,-75C847.5,-75 780.5,-75 780.5,-75 777.5,-75 774.5,-72 774.5,-69 774.5,-69 774.5,-63 774.5,-63 774.5,-60 777.5,-57 780.5,-57 780.5,-57 847.5,-57 847.5,-57 850.5,-57 853.5,-60 853.5,-63 853.5,-63 853.5,-69 853.5,-69 853.5,-72 850.5,-75 847.5,-75"/>
<text text-anchor="start" x="782.5" y="-63.8" font-family="Helvetica,sans-Serif" font-size="9.00">base.service.ts</text>
</a>
</g>
</g>
<!-- src/modules/doctor/doctor.controller.spec.ts -->
<g id="node16" class="node">
<title>src/modules/doctor/doctor.controller.spec.ts</title>
<g id="a_node16"><a xlink:href="src/modules/doctor/doctor.controller.spec.ts" xlink:title="doctor.controller.spec.ts">
<path fill="#ddfeff" stroke="black" d="M321,-250C321,-250 218,-250 218,-250 215,-250 212,-247 212,-244 212,-244 212,-238 212,-238 212,-235 215,-232 218,-232 218,-232 321,-232 321,-232 324,-232 327,-235 327,-238 327,-238 327,-244 327,-244 327,-247 324,-250 321,-250"/>
<text text-anchor="start" x="220" y="-238.8" font-family="Helvetica,sans-Serif" font-size="9.00">doctor.controller.spec.ts</text>
</a>
</g>
</g>
<!-- src/modules/doctor/doctor.controller.spec.ts&#45;&gt;src/modules/doctor/doctor.controller.ts -->
<g id="edge10" class="edge">
<title>src/modules/doctor/doctor.controller.spec.ts&#45;&gt;src/modules/doctor/doctor.controller.ts</title>
<path fill="none" stroke="#000000" stroke-width="2" stroke-opacity="0.200000" d="M327.02,-241C338.61,-241 350.75,-241 362.15,-241"/>
<polygon fill="#000000" fill-opacity="0.200000" stroke="#000000" stroke-width="2" stroke-opacity="0.200000" points="362.4,-243.1 368.4,-241 362.4,-238.9 362.4,-243.1"/>
</g>
<!-- src/modules/doctor/doctor.controller.ts&#45;&gt;src/modules/base/base.controller -->
<g id="edge11" class="edge">
<title>src/modules/doctor/doctor.controller.ts&#45;&gt;src/modules/base/base.controller</title>
<path fill="none" stroke="#000000" stroke-width="2" stroke-opacity="0.200000" d="M440.65,-250.08C502.02,-270.45 661.15,-312.39 754,-237 766.72,-226.67 750.81,-212.97 762,-201 764.13,-198.72 766.59,-196.78 769.26,-195.13"/>
<polygon fill="#000000" fill-opacity="0.200000" stroke="#000000" stroke-width="2" stroke-opacity="0.200000" points="770.63,-196.78 774.97,-192.13 768.68,-193.06 770.63,-196.78"/>
</g>
<!-- src/modules/doctor/doctor.service.ts&#45;&gt;src/modules/doctor/entities/doctor.entity.ts -->
<g id="edge17" class="edge">
<title>src/modules/doctor/doctor.service.ts&#45;&gt;src/modules/doctor/entities/doctor.entity.ts</title>
<path fill="none" stroke="#000000" stroke-width="2" stroke-opacity="0.200000" d="M456.33,-201.84C474.66,-199.53 496.29,-196.8 514.88,-194.45"/>
<polygon fill="#000000" fill-opacity="0.200000" stroke="#000000" stroke-width="2" stroke-opacity="0.200000" points="515.36,-196.5 521.05,-193.67 514.84,-192.34 515.36,-196.5"/>
</g>
<!-- src/modules/doctor/doctor.service.ts&#45;&gt;src/modules/base/base.service.ts -->
<g id="edge16" class="edge">
<title>src/modules/doctor/doctor.service.ts&#45;&gt;src/modules/base/base.service.ts</title>
<path fill="none" stroke="#000000" stroke-width="2" stroke-opacity="0.200000" d="M445.73,-216.05C461.45,-220.3 481.09,-224.88 499,-227 551.97,-233.25 568.11,-242.97 619,-227 688.76,-205.11 715.31,-195.04 754,-133 766.37,-113.16 746.6,-98.6 762,-81 764.02,-78.69 766.38,-76.73 768.95,-75.06"/>
<polygon fill="#000000" fill-opacity="0.200000" stroke="#000000" stroke-width="2" stroke-opacity="0.200000" points="770.22,-76.76 774.48,-72.04 768.21,-73.07 770.22,-76.76"/>
</g>
<!-- src/modules/doctor/doctor.service.spec.ts -->
<g id="node19" class="node">
<title>src/modules/doctor/doctor.service.spec.ts</title>
<g id="a_node19"><a xlink:href="src/modules/doctor/doctor.service.spec.ts" xlink:title="doctor.service.spec.ts">
<path fill="#ddfeff" stroke="black" d="M316.5,-220C316.5,-220 222.5,-220 222.5,-220 219.5,-220 216.5,-217 216.5,-214 216.5,-214 216.5,-208 216.5,-208 216.5,-205 219.5,-202 222.5,-202 222.5,-202 316.5,-202 316.5,-202 319.5,-202 322.5,-205 322.5,-208 322.5,-208 322.5,-214 322.5,-214 322.5,-217 319.5,-220 316.5,-220"/>
<text text-anchor="start" x="224.5" y="-208.8" font-family="Helvetica,sans-Serif" font-size="9.00">doctor.service.spec.ts</text>
</a>
</g>
</g>
<!-- src/modules/doctor/doctor.service.spec.ts&#45;&gt;src/modules/doctor/doctor.service.ts -->
<g id="edge15" class="edge">
<title>src/modules/doctor/doctor.service.spec.ts&#45;&gt;src/modules/doctor/doctor.service.ts</title>
<path fill="none" stroke="#000000" stroke-width="2" stroke-opacity="0.200000" d="M322.53,-209.54C336.94,-209.14 352.48,-208.71 366.58,-208.31"/>
<polygon fill="#000000" fill-opacity="0.200000" stroke="#000000" stroke-width="2" stroke-opacity="0.200000" points="367,-210.4 372.94,-208.13 366.88,-206.2 367,-210.4"/>
</g>
<!-- src/modules/especialidad/especialidad.controller.spec.ts -->
<g id="node21" class="node">
<title>src/modules/especialidad/especialidad.controller.spec.ts</title>
<g id="a_node21"><a xlink:href="src/modules/especialidad/especialidad.controller.spec.ts" xlink:title="especialidad.controller.spec.ts">
<path fill="#ddfeff" stroke="black" d="M480,-96C480,-96 349,-96 349,-96 346,-96 343,-93 343,-90 343,-90 343,-84 343,-84 343,-81 346,-78 349,-78 349,-78 480,-78 480,-78 483,-78 486,-81 486,-84 486,-84 486,-90 486,-90 486,-93 483,-96 480,-96"/>
<text text-anchor="start" x="351" y="-84.8" font-family="Helvetica,sans-Serif" font-size="9.00">especialidad.controller.spec.ts</text>
</a>
</g>
</g>
<!-- src/modules/especialidad/especialidad.controller.spec.ts&#45;&gt;src/modules/especialidad/especialidad.controller.ts -->
<g id="edge21" class="edge">
<title>src/modules/especialidad/especialidad.controller.spec.ts&#45;&gt;src/modules/especialidad/especialidad.controller.ts</title>
<path fill="none" stroke="#000000" stroke-width="2" stroke-opacity="0.200000" d="M486.33,-87C488.43,-87 490.52,-87 492.61,-87"/>
<polygon fill="#000000" fill-opacity="0.200000" stroke="#000000" stroke-width="2" stroke-opacity="0.200000" points="492.85,-89.1 498.85,-87 492.85,-84.9 492.85,-89.1"/>
</g>
<!-- src/modules/especialidad/especialidad.controller.ts&#45;&gt;src/modules/base/base.controller -->
<g id="edge22" class="edge">
<title>src/modules/especialidad/especialidad.controller.ts&#45;&gt;src/modules/base/base.controller</title>
<path fill="none" stroke="#000000" stroke-width="2" stroke-opacity="0.200000" d="M611.14,-77.87C613.98,-76.21 616.64,-74.27 619,-72 628.02,-63.32 616.97,-52.49 627,-45 638.31,-36.56 743.71,-35.34 754,-45 774.46,-64.2 744.49,-149.08 762,-171 764.12,-173.66 766.69,-175.86 769.54,-177.69"/>
<polygon fill="#000000" fill-opacity="0.200000" stroke="#000000" stroke-width="2" stroke-opacity="0.200000" points="768.64,-179.59 774.92,-180.58 770.63,-175.89 768.64,-179.59"/>
</g>
<!-- src/modules/especialidad/especialidad.service.ts&#45;&gt;src/modules/especialidad/entities/especialidad.entity.ts -->
<g id="edge28" class="edge">
<title>src/modules/especialidad/especialidad.service.ts&#45;&gt;src/modules/especialidad/entities/especialidad.entity.ts</title>
<path fill="none" stroke="#000000" stroke-width="2" stroke-opacity="0.200000" d="M614.68,-60.49C619.31,-60.78 624,-61.08 628.65,-61.38"/>
<polygon fill="#000000" fill-opacity="0.200000" stroke="#000000" stroke-width="2" stroke-opacity="0.200000" points="628.83,-63.49 634.95,-61.78 629.1,-59.3 628.83,-63.49"/>
</g>
<!-- src/modules/especialidad/especialidad.service.ts&#45;&gt;src/modules/base/base.service.ts -->
<g id="edge27" class="edge">
<title>src/modules/especialidad/especialidad.service.ts&#45;&gt;src/modules/base/base.service.ts</title>
<path fill="none" stroke="#000000" stroke-width="2" stroke-opacity="0.200000" d="M581.59,-47.97C594.51,-43.06 611.4,-37.49 627,-35 682.74,-26.08 699.2,-21.48 754,-35 768.67,-38.62 783.73,-46.62 794.97,-53.58"/>
<polygon fill="#000000" fill-opacity="0.200000" stroke="#000000" stroke-width="2" stroke-opacity="0.200000" points="793.97,-55.44 800.15,-56.89 796.23,-51.9 793.97,-55.44"/>
</g>
<!-- src/modules/especialidad/especialidad.service.spec.ts -->
<g id="node24" class="node">
<title>src/modules/especialidad/especialidad.service.spec.ts</title>
<g id="a_node24"><a xlink:href="src/modules/especialidad/especialidad.service.spec.ts" xlink:title="especialidad.service.spec.ts">
<path fill="#ddfeff" stroke="black" d="M475.5,-66C475.5,-66 353.5,-66 353.5,-66 350.5,-66 347.5,-63 347.5,-60 347.5,-60 347.5,-54 347.5,-54 347.5,-51 350.5,-48 353.5,-48 353.5,-48 475.5,-48 475.5,-48 478.5,-48 481.5,-51 481.5,-54 481.5,-54 481.5,-60 481.5,-60 481.5,-63 478.5,-66 475.5,-66"/>
<text text-anchor="start" x="355.5" y="-54.8" font-family="Helvetica,sans-Serif" font-size="9.00">especialidad.service.spec.ts</text>
</a>
</g>
</g>
<!-- src/modules/especialidad/especialidad.service.spec.ts&#45;&gt;src/modules/especialidad/especialidad.service.ts -->
<g id="edge26" class="edge">
<title>src/modules/especialidad/especialidad.service.spec.ts&#45;&gt;src/modules/especialidad/especialidad.service.ts</title>
<path fill="none" stroke="#000000" stroke-width="2" stroke-opacity="0.200000" d="M481.74,-57C486.97,-57 492.23,-57 497.41,-57"/>
<polygon fill="#000000" fill-opacity="0.200000" stroke="#000000" stroke-width="2" stroke-opacity="0.200000" points="497.45,-59.1 503.45,-57 497.45,-54.9 497.45,-59.1"/>
</g>
</g>
</svg>
