<?xml version="1.0" encoding="UTF-8" standalone="no"?>
<!DOCTYPE svg PUBLIC "-//W3C//DTD SVG 1.1//EN"
 "http://www.w3.org/Graphics/SVG/1.1/DTD/svg11.dtd">
<!-- Generated by graphviz version 4.0.0 (20220529.0937)
 -->
<!-- Title: dependency&#45;cruiser output Pages: 1 -->
<svg width="898pt" height="383pt"
 viewBox="0.00 0.00 898.00 383.47" xmlns="http://www.w3.org/2000/svg" xmlns:xlink="http://www.w3.org/1999/xlink">
<g id="graph0" class="graph" transform="scale(1 1) rotate(0) translate(4 379.47)">
<title>dependency&#45;cruiser output</title>
<polygon fill="white" stroke="transparent" points="-4,4 -4,-379.47 894,-379.47 894,4 -4,4"/>
<g id="clust1" class="cluster">
<title>cluster_src</title>
<path fill="#ffffff" stroke="black" stroke-width="2" d="M20,-9.47C20,-9.47 870,-9.47 870,-9.47 876,-9.47 882,-15.47 882,-21.47 882,-21.47 882,-355.47 882,-355.47 882,-361.47 876,-367.47 870,-367.47 870,-367.47 20,-367.47 20,-367.47 14,-367.47 8,-361.47 8,-355.47 8,-355.47 8,-21.47 8,-21.47 8,-15.47 14,-9.47 20,-9.47"/>
<text text-anchor="middle" x="445" y="-356.27" font-family="Helvetica,sans-Serif" font-weight="bold" font-size="9.00">src</text>
</g>
<g id="clust2" class="cluster">
<title>cluster_src/modules</title>
<path fill="#ffffff" stroke="black" stroke-width="2" d="M208,-19.47C208,-19.47 862,-19.47 862,-19.47 868,-19.47 874,-25.47 874,-31.47 874,-31.47 874,-273.47 874,-273.47 874,-279.47 868,-285.47 862,-285.47 862,-285.47 208,-285.47 208,-285.47 202,-285.47 196,-279.47 196,-273.47 196,-273.47 196,-31.47 196,-31.47 196,-25.47 202,-19.47 208,-19.47"/>
<text text-anchor="middle" x="535" y="-274.27" font-family="Helvetica,sans-Serif" font-weight="bold" font-size="9.00">modules</text>
</g>
<g id="clust3" class="cluster">
<title>cluster_src/modules/base</title>
<path fill="#ffffff" stroke="black" stroke-width="2" d="M774,-74.47C774,-74.47 854,-74.47 854,-74.47 860,-74.47 866,-80.47 866,-86.47 866,-86.47 866,-204.47 866,-204.47 866,-210.47 860,-216.47 854,-216.47 854,-216.47 774,-216.47 774,-216.47 768,-216.47 762,-210.47 762,-204.47 762,-204.47 762,-86.47 762,-86.47 762,-80.47 768,-74.47 774,-74.47"/>
<text text-anchor="middle" x="814" y="-205.27" font-family="Helvetica,sans-Serif" font-weight="bold" font-size="9.00">base</text>
</g>
<g id="clust4" class="cluster">
<title>cluster_src/modules/doctor</title>
<path fill="#ffffff" stroke="black" stroke-width="2" d="M216,-147.47C216,-147.47 600.5,-147.47 600.5,-147.47 606.5,-147.47 612.5,-153.47 612.5,-159.47 612.5,-159.47 612.5,-247.47 612.5,-247.47 612.5,-253.47 606.5,-259.47 600.5,-259.47 600.5,-259.47 216,-259.47 216,-259.47 210,-259.47 204,-253.47 204,-247.47 204,-247.47 204,-159.47 204,-159.47 204,-153.47 210,-147.47 216,-147.47"/>
<text text-anchor="middle" x="408.25" y="-248.27" font-family="Helvetica,sans-Serif" font-weight="bold" font-size="9.00">doctor</text>
</g>
<g id="clust5" class="cluster">
<title>cluster_src/modules/doctor/entities</title>
<path fill="#ffffff" stroke="black" stroke-width="2" d="M525.5,-155.47C525.5,-155.47 592.5,-155.47 592.5,-155.47 598.5,-155.47 604.5,-161.47 604.5,-167.47 604.5,-167.47 604.5,-195.47 604.5,-195.47 604.5,-201.47 598.5,-207.47 592.5,-207.47 592.5,-207.47 525.5,-207.47 525.5,-207.47 519.5,-207.47 513.5,-201.47 513.5,-195.47 513.5,-195.47 513.5,-167.47 513.5,-167.47 513.5,-161.47 519.5,-155.47 525.5,-155.47"/>
<text text-anchor="middle" x="559" y="-196.27" font-family="Helvetica,sans-Serif" font-weight="bold" font-size="9.00">entities</text>
</g>
<g id="clust6" class="cluster">
<title>cluster_src/modules/especialidad</title>
<path fill="#ffffff" stroke="black" stroke-width="2" d="M347,-27.47C347,-27.47 742,-27.47 742,-27.47 748,-27.47 754,-33.47 754,-39.47 754,-39.47 754,-127.47 754,-127.47 754,-133.47 748,-139.47 742,-139.47 742,-139.47 347,-139.47 347,-139.47 341,-139.47 335,-133.47 335,-127.47 335,-127.47 335,-39.47 335,-39.47 335,-33.47 341,-27.47 347,-27.47"/>
<text text-anchor="middle" x="544.5" y="-128.27" font-family="Helvetica,sans-Serif" font-weight="bold" font-size="9.00">especialidad</text>
</g>
<g id="clust7" class="cluster">
<title>cluster_src/modules/especialidad/entities</title>
<path fill="#ffffff" stroke="black" stroke-width="2" d="M639,-61.47C639,-61.47 734,-61.47 734,-61.47 740,-61.47 746,-67.47 746,-73.47 746,-73.47 746,-101.47 746,-101.47 746,-107.47 740,-113.47 734,-113.47 734,-113.47 639,-113.47 639,-113.47 633,-113.47 627,-107.47 627,-101.47 627,-101.47 627,-73.47 627,-73.47 627,-67.47 633,-61.47 639,-61.47"/>
<text text-anchor="middle" x="686.5" y="-102.27" font-family="Helvetica,sans-Serif" font-weight="bold" font-size="9.00">entities</text>
</g>
<!-- src/app.controller.spec.ts -->
<g id="node1" class="node">
<title>src/app.controller.spec.ts</title>
<g id="a_node1"><a xlink:href="src/app.controller.spec.ts" xlink:title="app.controller.spec.ts">
<path fill="#ddfeff" stroke="black" d="M182,-326.47C182,-326.47 89,-326.47 89,-326.47 86,-326.47 83,-323.47 83,-320.47 83,-320.47 83,-314.47 83,-314.47 83,-311.47 86,-308.47 89,-308.47 89,-308.47 182,-308.47 182,-308.47 185,-308.47 188,-311.47 188,-314.47 188,-314.47 188,-320.47 188,-320.47 188,-323.47 185,-326.47 182,-326.47"/>
<text text-anchor="start" x="91" y="-315.27" font-family="Helvetica,sans-Serif" font-size="9.00">app.controller.spec.ts</text>
</a>
</g>
</g>
<!-- src/app.controller.ts -->
<g id="node2" class="node">
<title>src/app.controller.ts</title>
<g id="a_node2"><a xlink:href="src/app.controller.ts" xlink:title="app.controller.ts">
<path fill="#ddfeff" stroke="black" d="M305,-311.47C305,-311.47 234,-311.47 234,-311.47 231,-311.47 228,-308.47 228,-305.47 228,-305.47 228,-299.47 228,-299.47 228,-296.47 231,-293.47 234,-293.47 234,-293.47 305,-293.47 305,-293.47 308,-293.47 311,-296.47 311,-299.47 311,-299.47 311,-305.47 311,-305.47 311,-308.47 308,-311.47 305,-311.47"/>
<text text-anchor="start" x="236" y="-300.27" font-family="Helvetica,sans-Serif" font-size="9.00">app.controller.ts</text>
</a>
</g>
</g>
<!-- src/app.controller.spec.ts&#45;&gt;src/app.controller.ts -->
<g id="edge1" class="edge">
<title>src/app.controller.spec.ts&#45;&gt;src/app.controller.ts</title>
<path fill="none" stroke="#000000" stroke-width="2" stroke-opacity="0.200000" d="M188.29,-311.58C199.28,-310.33 210.82,-309.02 221.61,-307.8"/>
<polygon fill="#000000" fill-opacity="0.200000" stroke="#000000" stroke-width="2" stroke-opacity="0.200000" points="222.15,-309.85 227.87,-307.08 221.67,-305.67 222.15,-309.85"/>
</g>
<!-- src/app.service.ts -->
<g id="node3" class="node">
<title>src/app.service.ts</title>
<g id="a_node3"><a xlink:href="src/app.service.ts" xlink:title="app.service.ts">
<path fill="#ddfeff" stroke="black" d="M300.5,-341.47C300.5,-341.47 238.5,-341.47 238.5,-341.47 235.5,-341.47 232.5,-338.47 232.5,-335.47 232.5,-335.47 232.5,-329.47 232.5,-329.47 232.5,-326.47 235.5,-323.47 238.5,-323.47 238.5,-323.47 300.5,-323.47 300.5,-323.47 303.5,-323.47 306.5,-326.47 306.5,-329.47 306.5,-329.47 306.5,-335.47 306.5,-335.47 306.5,-338.47 303.5,-341.47 300.5,-341.47"/>
<text text-anchor="start" x="240.5" y="-330.27" font-family="Helvetica,sans-Serif" font-size="9.00">app.service.ts</text>
</a>
</g>
</g>
<!-- src/app.controller.spec.ts&#45;&gt;src/app.service.ts -->
<g id="edge2" class="edge">
<title>src/app.controller.spec.ts&#45;&gt;src/app.service.ts</title>
<path fill="none" stroke="#000000" stroke-width="2" stroke-opacity="0.200000" d="M188.29,-323.35C200.84,-324.78 214.1,-326.29 226.16,-327.66"/>
<polygon fill="#000000" fill-opacity="0.200000" stroke="#000000" stroke-width="2" stroke-opacity="0.200000" points="226.14,-329.77 232.34,-328.36 226.62,-325.59 226.14,-329.77"/>
</g>
<!-- src/app.module.ts -->
<g id="node4" class="node">
<title>src/app.module.ts</title>
<g id="a_node4"><a xlink:href="src/app.module.ts" xlink:title="app.module.ts">
<path fill="#ddfeff" stroke="black" d="M167.5,-225.47C167.5,-225.47 103.5,-225.47 103.5,-225.47 100.5,-225.47 97.5,-222.47 97.5,-219.47 97.5,-219.47 97.5,-213.47 97.5,-213.47 97.5,-210.47 100.5,-207.47 103.5,-207.47 103.5,-207.47 167.5,-207.47 167.5,-207.47 170.5,-207.47 173.5,-210.47 173.5,-213.47 173.5,-213.47 173.5,-219.47 173.5,-219.47 173.5,-222.47 170.5,-225.47 167.5,-225.47"/>
<text text-anchor="start" x="105.5" y="-214.27" font-family="Helvetica,sans-Serif" font-size="9.00">app.module.ts</text>
</a>
</g>
</g>
<!-- src/app.module.ts&#45;&gt;src/app.controller.ts -->
<g id="edge3" class="edge">
<title>src/app.module.ts&#45;&gt;src/app.controller.ts</title>
<path fill="none" stroke="#000000" stroke-width="2" stroke-opacity="0.200000" d="M144.16,-225.49C154.77,-237.53 175.03,-258.92 196,-272.47 207.81,-280.1 221.88,-286.45 234.46,-291.32"/>
<polygon fill="#000000" fill-opacity="0.200000" stroke="#000000" stroke-width="2" stroke-opacity="0.200000" points="233.78,-293.3 240.13,-293.45 235.25,-289.37 233.78,-293.3"/>
</g>
<!-- src/app.module.ts&#45;&gt;src/app.service.ts -->
<g id="edge4" class="edge">
<title>src/app.module.ts&#45;&gt;src/app.service.ts</title>
<path fill="none" stroke="#000000" stroke-width="2" stroke-opacity="0.200000" d="M142.22,-225.67C151.88,-241.31 171.98,-274.14 188,-302.47 191.72,-309.04 189.95,-312.94 196,-317.47 204.77,-324.03 215.73,-327.89 226.46,-330.11"/>
<polygon fill="#000000" fill-opacity="0.200000" stroke="#000000" stroke-width="2" stroke-opacity="0.200000" points="226.1,-332.18 232.38,-331.18 226.85,-328.05 226.1,-332.18"/>
</g>
<!-- src/modules/doctor/doctor.module.ts -->
<g id="node5" class="node">
<title>src/modules/doctor/doctor.module.ts</title>
<g id="a_node5"><a xlink:href="src/modules/doctor/doctor.module.ts" xlink:title="doctor.module.ts">
<path fill="#ddfeff" stroke="black" d="M306.5,-173.47C306.5,-173.47 232.5,-173.47 232.5,-173.47 229.5,-173.47 226.5,-170.47 226.5,-167.47 226.5,-167.47 226.5,-161.47 226.5,-161.47 226.5,-158.47 229.5,-155.47 232.5,-155.47 232.5,-155.47 306.5,-155.47 306.5,-155.47 309.5,-155.47 312.5,-158.47 312.5,-161.47 312.5,-161.47 312.5,-167.47 312.5,-167.47 312.5,-170.47 309.5,-173.47 306.5,-173.47"/>
<text text-anchor="start" x="234.5" y="-162.27" font-family="Helvetica,sans-Serif" font-size="9.00">doctor.module.ts</text>
</a>
</g>
</g>
<!-- src/app.module.ts&#45;&gt;src/modules/doctor/doctor.module.ts -->
<g id="edge5" class="edge">
<title>src/app.module.ts&#45;&gt;src/modules/doctor/doctor.module.ts</title>
<path fill="none" stroke="#000000" stroke-width="2" stroke-opacity="0.200000" d="M148.58,-207.16C160.14,-198.71 178.38,-186.51 196,-179.47 203.61,-176.43 211.92,-173.97 220.12,-172"/>
<polygon fill="#000000" fill-opacity="0.200000" stroke="#000000" stroke-width="2" stroke-opacity="0.200000" points="220.97,-173.96 226.35,-170.58 220.04,-169.86 220.97,-173.96"/>
</g>
<!-- src/modules/doctor/entities/doctor.entity.ts -->
<g id="node6" class="node">
<title>src/modules/doctor/entities/doctor.entity.ts</title>
<g id="a_node6"><a xlink:href="src/modules/doctor/entities/doctor.entity.ts" xlink:title="doctor.entity.ts">
<path fill="#ddfeff" stroke="black" d="M590.5,-181.47C590.5,-181.47 527.5,-181.47 527.5,-181.47 524.5,-181.47 521.5,-178.47 521.5,-175.47 521.5,-175.47 521.5,-169.47 521.5,-169.47 521.5,-166.47 524.5,-163.47 527.5,-163.47 527.5,-163.47 590.5,-163.47 590.5,-163.47 593.5,-163.47 596.5,-166.47 596.5,-169.47 596.5,-169.47 596.5,-175.47 596.5,-175.47 596.5,-178.47 593.5,-181.47 590.5,-181.47"/>
<text text-anchor="start" x="529.5" y="-170.27" font-family="Helvetica,sans-Serif" font-size="9.00">doctor.entity.ts</text>
</a>
</g>
</g>
<!-- src/app.module.ts&#45;&gt;src/modules/doctor/entities/doctor.entity.ts -->
<g id="edge6" class="edge">
<title>src/app.module.ts&#45;&gt;src/modules/doctor/entities/doctor.entity.ts</title>
<path fill="none" stroke="#000000" stroke-width="2" stroke-opacity="0.200000" d="M139.37,-207.18C146.19,-186.37 165.15,-135.32 196,-103.47 245.43,-52.42 266.3,-42.63 335,-24.47 399.88,-7.32 436.01,20.31 486,-24.47 505.65,-42.07 483.99,-120.77 499,-142.47 504.42,-150.3 512.51,-156.21 520.98,-160.61"/>
<polygon fill="#000000" fill-opacity="0.200000" stroke="#000000" stroke-width="2" stroke-opacity="0.200000" points="520.55,-162.73 526.87,-163.43 522.36,-158.94 520.55,-162.73"/>
</g>
<!-- src/modules/especialidad/entities/especialidad.entity.ts -->
<g id="node7" class="node">
<title>src/modules/especialidad/entities/especialidad.entity.ts</title>
<g id="a_node7"><a xlink:href="src/modules/especialidad/entities/especialidad.entity.ts" xlink:title="especialidad.entity.ts">
<path fill="#ddfeff" stroke="black" d="M732,-87.47C732,-87.47 641,-87.47 641,-87.47 638,-87.47 635,-84.47 635,-81.47 635,-81.47 635,-75.47 635,-75.47 635,-72.47 638,-69.47 641,-69.47 641,-69.47 732,-69.47 732,-69.47 735,-69.47 738,-72.47 738,-75.47 738,-75.47 738,-81.47 738,-81.47 738,-84.47 735,-87.47 732,-87.47"/>
<text text-anchor="start" x="643" y="-76.27" font-family="Helvetica,sans-Serif" font-size="9.00">especialidad.entity.ts</text>
</a>
</g>
</g>
<!-- src/app.module.ts&#45;&gt;src/modules/especialidad/entities/especialidad.entity.ts -->
<g id="edge7" class="edge">
<title>src/app.module.ts&#45;&gt;src/modules/especialidad/entities/especialidad.entity.ts</title>
<path fill="none" stroke="#000000" stroke-width="2" stroke-opacity="0.200000" d="M144.65,-225.73C155.19,-236.94 174.75,-255.21 196,-262.47 256.99,-283.29 422.67,-274.41 486,-262.47 548.37,-250.71 572.06,-253.19 619,-210.47 655.19,-177.53 674.37,-120.41 681.79,-93.42"/>
<polygon fill="#000000" fill-opacity="0.200000" stroke="#000000" stroke-width="2" stroke-opacity="0.200000" points="683.84,-93.87 683.35,-87.53 679.78,-92.79 683.84,-93.87"/>
</g>
<!-- src/modules/especialidad/especialidad.module.ts -->
<g id="node8" class="node">
<title>src/modules/especialidad/especialidad.module.ts</title>
<g id="a_node8"><a xlink:href="src/modules/especialidad/especialidad.module.ts" xlink:title="especialidad.module.ts">
<path fill="#ddfeff" stroke="black" d="M465,-113.47C465,-113.47 364,-113.47 364,-113.47 361,-113.47 358,-110.47 358,-107.47 358,-107.47 358,-101.47 358,-101.47 358,-98.47 361,-95.47 364,-95.47 364,-95.47 465,-95.47 465,-95.47 468,-95.47 471,-98.47 471,-101.47 471,-101.47 471,-107.47 471,-107.47 471,-110.47 468,-113.47 465,-113.47"/>
<text text-anchor="start" x="366" y="-102.27" font-family="Helvetica,sans-Serif" font-size="9.00">especialidad.module.ts</text>
</a>
</g>
</g>
<!-- src/app.module.ts&#45;&gt;src/modules/especialidad/especialidad.module.ts -->
<g id="edge8" class="edge">
<title>src/app.module.ts&#45;&gt;src/modules/especialidad/especialidad.module.ts</title>
<path fill="none" stroke="#000000" stroke-width="2" stroke-opacity="0.200000" d="M141.3,-207.19C149.95,-191.5 169.71,-159.91 196,-144.47 243.37,-116.65 305.73,-107.43 351.52,-104.71"/>
<polygon fill="#000000" fill-opacity="0.200000" stroke="#000000" stroke-width="2" stroke-opacity="0.200000" points="351.71,-106.8 357.59,-104.38 351.49,-102.61 351.71,-106.8"/>
</g>
<!-- src/modules/doctor/doctor.module.ts&#45;&gt;src/modules/doctor/entities/doctor.entity.ts -->
<g id="edge14" class="edge">
<title>src/modules/doctor/doctor.module.ts&#45;&gt;src/modules/doctor/entities/doctor.entity.ts</title>
<path fill="none" stroke="#000000" stroke-width="2" stroke-opacity="0.200000" d="M312.61,-165.64C366.83,-167.15 460.53,-169.76 515.12,-171.27"/>
<polygon fill="#000000" fill-opacity="0.200000" stroke="#000000" stroke-width="2" stroke-opacity="0.200000" points="515.19,-173.38 521.25,-171.44 515.31,-169.18 515.19,-173.38"/>
</g>
<!-- src/modules/doctor/doctor.controller.ts -->
<g id="node15" class="node">
<title>src/modules/doctor/doctor.controller.ts</title>
<g id="a_node15"><a xlink:href="src/modules/doctor/doctor.controller.ts" xlink:title="doctor.controller.ts">
<path fill="#ddfeff" stroke="black" d="M454.5,-203.47C454.5,-203.47 374.5,-203.47 374.5,-203.47 371.5,-203.47 368.5,-200.47 368.5,-197.47 368.5,-197.47 368.5,-191.47 368.5,-191.47 368.5,-188.47 371.5,-185.47 374.5,-185.47 374.5,-185.47 454.5,-185.47 454.5,-185.47 457.5,-185.47 460.5,-188.47 460.5,-191.47 460.5,-191.47 460.5,-197.47 460.5,-197.47 460.5,-200.47 457.5,-203.47 454.5,-203.47"/>
<text text-anchor="start" x="376.5" y="-192.27" font-family="Helvetica,sans-Serif" font-size="9.00">doctor.controller.ts</text>
</a>
</g>
</g>
<!-- src/modules/doctor/doctor.module.ts&#45;&gt;src/modules/doctor/doctor.controller.ts -->
<g id="edge12" class="edge">
<title>src/modules/doctor/doctor.module.ts&#45;&gt;src/modules/doctor/doctor.controller.ts</title>
<path fill="none" stroke="#000000" stroke-width="2" stroke-opacity="0.200000" d="M312.63,-173.31C328.77,-176.69 347.33,-180.59 364.1,-184.1"/>
<polygon fill="#000000" fill-opacity="0.200000" stroke="#000000" stroke-width="2" stroke-opacity="0.200000" points="363.88,-186.2 370.18,-185.38 364.74,-182.09 363.88,-186.2"/>
</g>
<!-- src/modules/doctor/doctor.service.ts -->
<g id="node16" class="node">
<title>src/modules/doctor/doctor.service.ts</title>
<g id="a_node16"><a xlink:href="src/modules/doctor/doctor.service.ts" xlink:title="doctor.service.ts">
<path fill="#ddfeff" stroke="black" d="M450,-233.47C450,-233.47 379,-233.47 379,-233.47 376,-233.47 373,-230.47 373,-227.47 373,-227.47 373,-221.47 373,-221.47 373,-218.47 376,-215.47 379,-215.47 379,-215.47 450,-215.47 450,-215.47 453,-215.47 456,-218.47 456,-221.47 456,-221.47 456,-227.47 456,-227.47 456,-230.47 453,-233.47 450,-233.47"/>
<text text-anchor="start" x="381" y="-222.27" font-family="Helvetica,sans-Serif" font-size="9.00">doctor.service.ts</text>
</a>
</g>
</g>
<!-- src/modules/doctor/doctor.module.ts&#45;&gt;src/modules/doctor/doctor.service.ts -->
<g id="edge13" class="edge">
<title>src/modules/doctor/doctor.module.ts&#45;&gt;src/modules/doctor/doctor.service.ts</title>
<path fill="none" stroke="#000000" stroke-width="2" stroke-opacity="0.200000" d="M312.71,-170.27C318.01,-172.47 322.98,-175.45 327,-179.47 336.76,-189.22 324.9,-200.07 335,-209.47 343.65,-217.52 355.23,-221.87 366.84,-224.1"/>
<polygon fill="#000000" fill-opacity="0.200000" stroke="#000000" stroke-width="2" stroke-opacity="0.200000" points="366.63,-226.19 372.89,-225.08 367.3,-222.05 366.63,-226.19"/>
</g>
<!-- src/modules/doctor/entities/doctor.entity.ts&#45;&gt;src/modules/especialidad/entities/especialidad.entity.ts -->
<g id="edge19" class="edge">
<title>src/modules/doctor/entities/doctor.entity.ts&#45;&gt;src/modules/especialidad/entities/especialidad.entity.ts</title>
<path fill="none" stroke="#000000" stroke-width="2" stroke-opacity="0.200000" d="M581.62,-163.35C593.18,-158.02 607.39,-150.73 619,-142.47 639.93,-127.58 660.73,-106.24 673.35,-92.37"/>
<polygon fill="#000000" fill-opacity="0.200000" stroke="#000000" stroke-width="2" stroke-opacity="0.200000" points="675.16,-93.49 677.61,-87.62 672.04,-90.68 675.16,-93.49"/>
</g>
<!-- src/modules/base/base.entity.ts -->
<g id="node12" class="node">
<title>src/modules/base/base.entity.ts</title>
<g id="a_node12"><a xlink:href="src/modules/base/base.entity.ts" xlink:title="base.entity.ts">
<path fill="#ddfeff" stroke="black" d="M843.5,-130.47C843.5,-130.47 784.5,-130.47 784.5,-130.47 781.5,-130.47 778.5,-127.47 778.5,-124.47 778.5,-124.47 778.5,-118.47 778.5,-118.47 778.5,-115.47 781.5,-112.47 784.5,-112.47 784.5,-112.47 843.5,-112.47 843.5,-112.47 846.5,-112.47 849.5,-115.47 849.5,-118.47 849.5,-118.47 849.5,-124.47 849.5,-124.47 849.5,-127.47 846.5,-130.47 843.5,-130.47"/>
<text text-anchor="start" x="786.5" y="-119.27" font-family="Helvetica,sans-Serif" font-size="9.00">base.entity.ts</text>
</a>
</g>
</g>
<!-- src/modules/doctor/entities/doctor.entity.ts&#45;&gt;src/modules/base/base.entity.ts -->
<g id="edge18" class="edge">
<title>src/modules/doctor/entities/doctor.entity.ts&#45;&gt;src/modules/base/base.entity.ts</title>
<path fill="none" stroke="#000000" stroke-width="2" stroke-opacity="0.200000" d="M596.52,-165.11C643.1,-155.71 723.45,-139.52 772.06,-129.72"/>
<polygon fill="#000000" fill-opacity="0.200000" stroke="#000000" stroke-width="2" stroke-opacity="0.200000" points="772.65,-131.74 778.12,-128.5 771.82,-127.63 772.65,-131.74"/>
</g>
<!-- src/modules/especialidad/entities/especialidad.entity.ts&#45;&gt;src/modules/base/base.entity.ts -->
<g id="edge20" class="edge">
<title>src/modules/especialidad/entities/especialidad.entity.ts&#45;&gt;src/modules/base/base.entity.ts</title>
<path fill="none" stroke="#000000" stroke-width="2" stroke-opacity="0.200000" d="M710.17,-87.48C724.85,-93.2 744.44,-100.59 762,-106.47 766.21,-107.88 770.64,-109.29 775.06,-110.65"/>
<polygon fill="#000000" fill-opacity="0.200000" stroke="#000000" stroke-width="2" stroke-opacity="0.200000" points="774.71,-112.73 781.06,-112.46 775.93,-108.71 774.71,-112.73"/>
</g>
<!-- src/modules/especialidad/especialidad.module.ts&#45;&gt;src/modules/especialidad/entities/especialidad.entity.ts -->
<g id="edge25" class="edge">
<title>src/modules/especialidad/especialidad.module.ts&#45;&gt;src/modules/especialidad/entities/especialidad.entity.ts</title>
<path fill="none" stroke="#000000" stroke-width="2" stroke-opacity="0.200000" d="M471.4,-102.84C512.39,-101.18 569.32,-97.88 619,-91.47 625.04,-90.69 631.35,-89.69 637.58,-88.6"/>
<polygon fill="#000000" fill-opacity="0.200000" stroke="#000000" stroke-width="2" stroke-opacity="0.200000" points="638.24,-90.61 643.78,-87.48 637.5,-86.48 638.24,-90.61"/>
</g>
<!-- src/modules/especialidad/especialidad.controller.ts -->
<g id="node19" class="node">
<title>src/modules/especialidad/especialidad.controller.ts</title>
<g id="a_node19"><a xlink:href="src/modules/especialidad/especialidad.controller.ts" xlink:title="especialidad.controller.ts">
<path fill="#ddfeff" stroke="black" d="M613,-53.47C613,-53.47 505,-53.47 505,-53.47 502,-53.47 499,-50.47 499,-47.47 499,-47.47 499,-41.47 499,-41.47 499,-38.47 502,-35.47 505,-35.47 505,-35.47 613,-35.47 613,-35.47 616,-35.47 619,-38.47 619,-41.47 619,-41.47 619,-47.47 619,-47.47 619,-50.47 616,-53.47 613,-53.47"/>
<text text-anchor="start" x="507" y="-42.27" font-family="Helvetica,sans-Serif" font-size="9.00">especialidad.controller.ts</text>
</a>
</g>
</g>
<!-- src/modules/especialidad/especialidad.module.ts&#45;&gt;src/modules/especialidad/especialidad.controller.ts -->
<g id="edge23" class="edge">
<title>src/modules/especialidad/especialidad.module.ts&#45;&gt;src/modules/especialidad/especialidad.controller.ts</title>
<path fill="none" stroke="#000000" stroke-width="2" stroke-opacity="0.200000" d="M471.26,-97.85C476.56,-95.72 481.6,-92.98 486,-89.47 496.73,-80.92 488.58,-70.39 499,-61.47 501.21,-59.57 503.62,-57.89 506.16,-56.39"/>
<polygon fill="#000000" fill-opacity="0.200000" stroke="#000000" stroke-width="2" stroke-opacity="0.200000" points="507.2,-58.22 511.55,-53.58 505.26,-54.5 507.2,-58.22"/>
</g>
<!-- src/modules/especialidad/especialidad.service.ts -->
<g id="node20" class="node">
<title>src/modules/especialidad/especialidad.service.ts</title>
<g id="a_node20"><a xlink:href="src/modules/especialidad/especialidad.service.ts" xlink:title="especialidad.service.ts">
<path fill="#ddfeff" stroke="black" d="M608.5,-85.47C608.5,-85.47 509.5,-85.47 509.5,-85.47 506.5,-85.47 503.5,-82.47 503.5,-79.47 503.5,-79.47 503.5,-73.47 503.5,-73.47 503.5,-70.47 506.5,-67.47 509.5,-67.47 509.5,-67.47 608.5,-67.47 608.5,-67.47 611.5,-67.47 614.5,-70.47 614.5,-73.47 614.5,-73.47 614.5,-79.47 614.5,-79.47 614.5,-82.47 611.5,-85.47 608.5,-85.47"/>
<text text-anchor="start" x="511.5" y="-74.27" font-family="Helvetica,sans-Serif" font-size="9.00">especialidad.service.ts</text>
</a>
</g>
</g>
<!-- src/modules/especialidad/especialidad.module.ts&#45;&gt;src/modules/especialidad/especialidad.service.ts -->
<g id="edge24" class="edge">
<title>src/modules/especialidad/especialidad.module.ts&#45;&gt;src/modules/especialidad/especialidad.service.ts</title>
<path fill="none" stroke="#000000" stroke-width="2" stroke-opacity="0.200000" d="M461.37,-95.45C475.47,-92.68 491.09,-89.61 505.59,-86.77"/>
<polygon fill="#000000" fill-opacity="0.200000" stroke="#000000" stroke-width="2" stroke-opacity="0.200000" points="506.24,-88.78 511.73,-85.56 505.43,-84.66 506.24,-88.78"/>
</g>
<!-- src/main.ts -->
<g id="node9" class="node">
<title>src/main.ts</title>
<g id="a_node9"><a xlink:href="src/main.ts" xlink:title="main.ts">
<path fill="#ddfeff" stroke="black" d="M64,-225.47C64,-225.47 22,-225.47 22,-225.47 19,-225.47 16,-222.47 16,-219.47 16,-219.47 16,-213.47 16,-213.47 16,-210.47 19,-207.47 22,-207.47 22,-207.47 64,-207.47 64,-207.47 67,-207.47 70,-210.47 70,-213.47 70,-213.47 70,-219.47 70,-219.47 70,-222.47 67,-225.47 64,-225.47"/>
<text text-anchor="start" x="27.5" y="-214.27" font-family="Helvetica,sans-Serif" font-size="9.00">main.ts</text>
</a>
</g>
</g>
<!-- src/main.ts&#45;&gt;src/app.module.ts -->
<g id="edge9" class="edge">
<title>src/main.ts&#45;&gt;src/app.module.ts</title>
<path fill="none" stroke="#000000" stroke-width="2" stroke-opacity="0.200000" d="M70.18,-216.47C76.78,-216.47 84.05,-216.47 91.26,-216.47"/>
<polygon fill="#000000" fill-opacity="0.200000" stroke="#000000" stroke-width="2" stroke-opacity="0.200000" points="91.28,-218.57 97.28,-216.47 91.28,-214.37 91.28,-218.57"/>
</g>
<!-- src/modules/base/IBaseService.ts -->
<g id="node10" class="node">
<title>src/modules/base/IBaseService.ts</title>
<g id="a_node10"><a xlink:href="src/modules/base/IBaseService.ts" xlink:title="IBaseService.ts">
<path fill="#ccffcc" stroke="black" d="M848,-190.47C848,-190.47 780,-190.47 780,-190.47 777,-190.47 774,-187.47 774,-184.47 774,-184.47 774,-178.47 774,-178.47 774,-175.47 777,-172.47 780,-172.47 780,-172.47 848,-172.47 848,-172.47 851,-172.47 854,-175.47 854,-178.47 854,-178.47 854,-184.47 854,-184.47 854,-187.47 851,-190.47 848,-190.47"/>
<text text-anchor="start" x="782" y="-179.27" font-family="Helvetica,sans-Serif" font-size="9.00">IBaseService.ts</text>
</a>
</g>
</g>
<!-- src/modules/base/base.controller.ts -->
<g id="node11" class="node">
<title>src/modules/base/base.controller.ts</title>
<g id="a_node11"><a xlink:href="src/modules/base/base.controller.ts" xlink:title="base.controller.ts">
<path fill="#ddfeff" stroke="black" d="M852,-100.47C852,-100.47 776,-100.47 776,-100.47 773,-100.47 770,-97.47 770,-94.47 770,-94.47 770,-88.47 770,-88.47 770,-85.47 773,-82.47 776,-82.47 776,-82.47 852,-82.47 852,-82.47 855,-82.47 858,-85.47 858,-88.47 858,-88.47 858,-94.47 858,-94.47 858,-97.47 855,-100.47 852,-100.47"/>
<text text-anchor="start" x="778" y="-89.27" font-family="Helvetica,sans-Serif" font-size="9.00">base.controller.ts</text>
</a>
</g>
</g>
<!-- src/modules/base/base.service.ts -->
<g id="node13" class="node">
<title>src/modules/base/base.service.ts</title>
<g id="a_node13"><a xlink:href="src/modules/base/base.service.ts" xlink:title="base.service.ts">
<path fill="#ddfeff" stroke="black" d="M847.5,-160.47C847.5,-160.47 780.5,-160.47 780.5,-160.47 777.5,-160.47 774.5,-157.47 774.5,-154.47 774.5,-154.47 774.5,-148.47 774.5,-148.47 774.5,-145.47 777.5,-142.47 780.5,-142.47 780.5,-142.47 847.5,-142.47 847.5,-142.47 850.5,-142.47 853.5,-145.47 853.5,-148.47 853.5,-148.47 853.5,-154.47 853.5,-154.47 853.5,-157.47 850.5,-160.47 847.5,-160.47"/>
<text text-anchor="start" x="782.5" y="-149.27" font-family="Helvetica,sans-Serif" font-size="9.00">base.service.ts</text>
</a>
</g>
</g>
<!-- src/modules/doctor/doctor.controller.spec.ts -->
<g id="node14" class="node">
<title>src/modules/doctor/doctor.controller.spec.ts</title>
<g id="a_node14"><a xlink:href="src/modules/doctor/doctor.controller.spec.ts" xlink:title="doctor.controller.spec.ts">
<path fill="#ddfeff" stroke="black" d="M321,-203.47C321,-203.47 218,-203.47 218,-203.47 215,-203.47 212,-200.47 212,-197.47 212,-197.47 212,-191.47 212,-191.47 212,-188.47 215,-185.47 218,-185.47 218,-185.47 321,-185.47 321,-185.47 324,-185.47 327,-188.47 327,-191.47 327,-191.47 327,-197.47 327,-197.47 327,-200.47 324,-203.47 321,-203.47"/>
<text text-anchor="start" x="220" y="-192.27" font-family="Helvetica,sans-Serif" font-size="9.00">doctor.controller.spec.ts</text>
</a>
</g>
</g>
<!-- src/modules/doctor/doctor.controller.spec.ts&#45;&gt;src/modules/doctor/doctor.controller.ts -->
<g id="edge10" class="edge">
<title>src/modules/doctor/doctor.controller.spec.ts&#45;&gt;src/modules/doctor/doctor.controller.ts</title>
<path fill="none" stroke="#000000" stroke-width="2" stroke-opacity="0.200000" d="M327.02,-194.47C338.61,-194.47 350.75,-194.47 362.15,-194.47"/>
<polygon fill="#000000" fill-opacity="0.200000" stroke="#000000" stroke-width="2" stroke-opacity="0.200000" points="362.4,-196.57 368.4,-194.47 362.4,-192.37 362.4,-196.57"/>
</g>
<!-- src/modules/doctor/doctor.controller.ts&#45;&gt;src/modules/base/base.controller.ts -->
<g id="edge11" class="edge">
<title>src/modules/doctor/doctor.controller.ts&#45;&gt;src/modules/base/base.controller.ts</title>
<path fill="none" stroke="#000000" stroke-width="2" stroke-opacity="0.200000" d="M454.36,-203.5C468.35,-206.33 484.31,-209.07 499,-210.47 552.09,-215.51 568.11,-226.44 619,-210.47 688.76,-188.57 700.61,-166.42 754,-116.47 758.16,-112.58 757.27,-109.64 762,-106.47 763.72,-105.31 765.54,-104.24 767.42,-103.25"/>
<polygon fill="#000000" fill-opacity="0.200000" stroke="#000000" stroke-width="2" stroke-opacity="0.200000" points="768.67,-104.98 773.2,-100.52 766.88,-101.18 768.67,-104.98"/>
</g>
<!-- src/modules/doctor/doctor.service.ts&#45;&gt;src/modules/doctor/entities/doctor.entity.ts -->
<g id="edge17" class="edge">
<title>src/modules/doctor/doctor.service.ts&#45;&gt;src/modules/doctor/entities/doctor.entity.ts</title>
<path fill="none" stroke="#000000" stroke-width="2" stroke-opacity="0.200000" d="M456.07,-221.93C466.6,-219.72 477.38,-215.91 486,-209.47 495.72,-202.2 489.31,-192.77 499,-185.47 503.84,-181.82 509.5,-179.16 515.36,-177.22"/>
<polygon fill="#000000" fill-opacity="0.200000" stroke="#000000" stroke-width="2" stroke-opacity="0.200000" points="516.08,-179.2 521.26,-175.52 514.92,-175.17 516.08,-179.2"/>
</g>
<!-- src/modules/doctor/doctor.service.ts&#45;&gt;src/modules/base/base.service.ts -->
<g id="edge16" class="edge">
<title>src/modules/doctor/doctor.service.ts&#45;&gt;src/modules/base/base.service.ts</title>
<path fill="none" stroke="#000000" stroke-width="2" stroke-opacity="0.200000" d="M439.64,-233.49C500.78,-254.6 663.24,-299.71 754,-220.47 772.28,-204.51 746.08,-184.77 762,-166.47 764.01,-164.15 766.37,-162.18 768.93,-160.51"/>
<polygon fill="#000000" fill-opacity="0.200000" stroke="#000000" stroke-width="2" stroke-opacity="0.200000" points="770.21,-162.21 774.46,-157.49 768.19,-158.53 770.21,-162.21"/>
</g>
<!-- src/modules/doctor/doctor.service.spec.ts -->
<g id="node17" class="node">
<title>src/modules/doctor/doctor.service.spec.ts</title>
<g id="a_node17"><a xlink:href="src/modules/doctor/doctor.service.spec.ts" xlink:title="doctor.service.spec.ts">
<path fill="#ddfeff" stroke="black" d="M316.5,-233.47C316.5,-233.47 222.5,-233.47 222.5,-233.47 219.5,-233.47 216.5,-230.47 216.5,-227.47 216.5,-227.47 216.5,-221.47 216.5,-221.47 216.5,-218.47 219.5,-215.47 222.5,-215.47 222.5,-215.47 316.5,-215.47 316.5,-215.47 319.5,-215.47 322.5,-218.47 322.5,-221.47 322.5,-221.47 322.5,-227.47 322.5,-227.47 322.5,-230.47 319.5,-233.47 316.5,-233.47"/>
<text text-anchor="start" x="224.5" y="-222.27" font-family="Helvetica,sans-Serif" font-size="9.00">doctor.service.spec.ts</text>
</a>
</g>
</g>
<!-- src/modules/doctor/doctor.service.spec.ts&#45;&gt;src/modules/doctor/doctor.service.ts -->
<g id="edge15" class="edge">
<title>src/modules/doctor/doctor.service.spec.ts&#45;&gt;src/modules/doctor/doctor.service.ts</title>
<path fill="none" stroke="#000000" stroke-width="2" stroke-opacity="0.200000" d="M322.53,-224.47C336.94,-224.47 352.48,-224.47 366.58,-224.47"/>
<polygon fill="#000000" fill-opacity="0.200000" stroke="#000000" stroke-width="2" stroke-opacity="0.200000" points="366.94,-226.57 372.94,-224.47 366.94,-222.37 366.94,-226.57"/>
</g>
<!-- src/modules/especialidad/especialidad.controller.spec.ts -->
<g id="node18" class="node">
<title>src/modules/especialidad/especialidad.controller.spec.ts</title>
<g id="a_node18"><a xlink:href="src/modules/especialidad/especialidad.controller.spec.ts" xlink:title="especialidad.controller.spec.ts">
<path fill="#ddfeff" stroke="black" d="M480,-53.47C480,-53.47 349,-53.47 349,-53.47 346,-53.47 343,-50.47 343,-47.47 343,-47.47 343,-41.47 343,-41.47 343,-38.47 346,-35.47 349,-35.47 349,-35.47 480,-35.47 480,-35.47 483,-35.47 486,-38.47 486,-41.47 486,-41.47 486,-47.47 486,-47.47 486,-50.47 483,-53.47 480,-53.47"/>
<text text-anchor="start" x="351" y="-42.27" font-family="Helvetica,sans-Serif" font-size="9.00">especialidad.controller.spec.ts</text>
</a>
</g>
</g>
<!-- src/modules/especialidad/especialidad.controller.spec.ts&#45;&gt;src/modules/especialidad/especialidad.controller.ts -->
<g id="edge21" class="edge">
<title>src/modules/especialidad/especialidad.controller.spec.ts&#45;&gt;src/modules/especialidad/especialidad.controller.ts</title>
<path fill="none" stroke="#000000" stroke-width="2" stroke-opacity="0.200000" d="M486.33,-44.47C488.43,-44.47 490.52,-44.47 492.61,-44.47"/>
<polygon fill="#000000" fill-opacity="0.200000" stroke="#000000" stroke-width="2" stroke-opacity="0.200000" points="492.85,-46.57 498.85,-44.47 492.85,-42.37 492.85,-46.57"/>
</g>
<!-- src/modules/especialidad/especialidad.controller.ts&#45;&gt;src/modules/base/base.controller.ts -->
<g id="edge22" class="edge">
<title>src/modules/especialidad/especialidad.controller.ts&#45;&gt;src/modules/base/base.controller.ts</title>
<path fill="none" stroke="#000000" stroke-width="2" stroke-opacity="0.200000" d="M619.3,-36.63C658.55,-33.61 710.59,-33.83 754,-48.47 771.66,-54.42 788.49,-67.71 799.62,-77.96"/>
<polygon fill="#000000" fill-opacity="0.200000" stroke="#000000" stroke-width="2" stroke-opacity="0.200000" points="798.23,-79.53 804.03,-82.13 801.12,-76.48 798.23,-79.53"/>
</g>
<!-- src/modules/especialidad/especialidad.service.ts&#45;&gt;src/modules/especialidad/entities/especialidad.entity.ts -->
<g id="edge28" class="edge">
<title>src/modules/especialidad/especialidad.service.ts&#45;&gt;src/modules/especialidad/entities/especialidad.entity.ts</title>
<path fill="none" stroke="#000000" stroke-width="2" stroke-opacity="0.200000" d="M614.68,-77.34C619.31,-77.41 624,-77.49 628.65,-77.56"/>
<polygon fill="#000000" fill-opacity="0.200000" stroke="#000000" stroke-width="2" stroke-opacity="0.200000" points="628.92,-79.67 634.95,-77.66 628.99,-75.47 628.92,-79.67"/>
</g>
<!-- src/modules/especialidad/especialidad.service.ts&#45;&gt;src/modules/base/base.service.ts -->
<g id="edge27" class="edge">
<title>src/modules/especialidad/especialidad.service.ts&#45;&gt;src/modules/base/base.service.ts</title>
<path fill="none" stroke="#000000" stroke-width="2" stroke-opacity="0.200000" d="M587.05,-67.46C599.13,-63.9 613.63,-60.23 627,-58.47 654.98,-54.77 733.05,-39.56 754,-58.47 766.93,-70.14 750.86,-123.07 762,-136.47 763.96,-138.83 766.27,-140.83 768.81,-142.52"/>
<polygon fill="#000000" fill-opacity="0.200000" stroke="#000000" stroke-width="2" stroke-opacity="0.200000" points="768.04,-144.49 774.3,-145.58 770.09,-140.83 768.04,-144.49"/>
</g>
<!-- src/modules/especialidad/especialidad.service.spec.ts -->
<g id="node21" class="node">
<title>src/modules/especialidad/especialidad.service.spec.ts</title>
<g id="a_node21"><a xlink:href="src/modules/especialidad/especialidad.service.spec.ts" xlink:title="especialidad.service.spec.ts">
<path fill="#ddfeff" stroke="black" d="M475.5,-83.47C475.5,-83.47 353.5,-83.47 353.5,-83.47 350.5,-83.47 347.5,-80.47 347.5,-77.47 347.5,-77.47 347.5,-71.47 347.5,-71.47 347.5,-68.47 350.5,-65.47 353.5,-65.47 353.5,-65.47 475.5,-65.47 475.5,-65.47 478.5,-65.47 481.5,-68.47 481.5,-71.47 481.5,-71.47 481.5,-77.47 481.5,-77.47 481.5,-80.47 478.5,-83.47 475.5,-83.47"/>
<text text-anchor="start" x="355.5" y="-72.27" font-family="Helvetica,sans-Serif" font-size="9.00">especialidad.service.spec.ts</text>
</a>
</g>
</g>
<!-- src/modules/especialidad/especialidad.service.spec.ts&#45;&gt;src/modules/especialidad/especialidad.service.ts -->
<g id="edge26" class="edge">
<title>src/modules/especialidad/especialidad.service.spec.ts&#45;&gt;src/modules/especialidad/especialidad.service.ts</title>
<path fill="none" stroke="#000000" stroke-width="2" stroke-opacity="0.200000" d="M481.74,-75.4C486.97,-75.47 492.23,-75.54 497.41,-75.62"/>
<polygon fill="#000000" fill-opacity="0.200000" stroke="#000000" stroke-width="2" stroke-opacity="0.200000" points="497.42,-77.72 503.45,-75.7 497.48,-73.52 497.42,-77.72"/>
</g>
</g>
</svg>
